<svg xmlns="http://www.w3.org/2000/svg" viewBox="0 0 64.47 63.75"><defs><style>.cls-1{fill:#f62459;}</style></defs><g id="Layer_2" data-name="Layer 2"><g id="Layer_1-2" data-name="Layer 1"><path class="cls-1" d="M30.31,33.43l-7.68,7.68A4.45,4.45,0,0,1,19,42.38,21.25,21.25,0,0,1,21.25,0H63.74A15.69,15.69,0,0,1,48.06,15.68H21a2.2,2.2,0,0,0-1.56,3.76L30.32,30.32A2.19,2.19,0,0,1,30.31,33.43Z"/><path class="cls-1" d="M58.25,27.47a21.26,21.26,0,0,1-15,36.28H.73a15.71,15.71,0,0,1,15.69-15.7H43.47A2.19,2.19,0,0,0,45,44.3L34.16,33.43a2.2,2.2,0,0,1,0-3.11l7.68-7.69a4.45,4.45,0,0,1,3.61-1.27A21.2,21.2,0,0,1,58.25,27.47Z"/></g></g></svg>