<?xml version="1.0" encoding="iso-8859-1"?>
<!-- Generator: Adobe Illustrator 17.1.0, SVG Export Plug-In . SVG Version: 6.00 Build 0)  -->
<!DOCTYPE svg PUBLIC "-//W3C//DTD SVG 1.1//EN" "http://www.w3.org/Graphics/SVG/1.1/DTD/svg11.dtd">
<svg version="1.1" id="Capa_1" xmlns="http://www.w3.org/2000/svg" xmlns:xlink="http://www.w3.org/1999/xlink" x="0px" y="0px"
	 viewBox="0 0 512.002 512.002" style="enable-background:new 0 0 512.002 512.002;" xml:space="preserve">
<path d="M456.001,496h-8V304c0-0.009-0.001-0.017-0.001-0.026c5.022-6.686,8.001-14.988,8.001-23.974v-16
	c0-0.123-0.013-0.242-0.018-0.363c-0.004-0.089-0.006-0.178-0.013-0.266c-0.028-0.354-0.074-0.702-0.146-1.042
	c-0.004-0.021-0.011-0.04-0.016-0.061c-0.073-0.333-0.172-0.656-0.285-0.973c-0.022-0.063-0.044-0.125-0.068-0.187
	c-0.13-0.335-0.277-0.661-0.449-0.972c-0.013-0.023-0.028-0.044-0.041-0.067c-0.164-0.29-0.349-0.567-0.547-0.833
	c-0.045-0.061-0.088-0.121-0.135-0.18c-0.219-0.278-0.454-0.542-0.707-0.788c-0.015-0.014-0.026-0.031-0.04-0.045L264.001,76.586V64
	h56c2.95,0,5.661-1.624,7.053-4.225s1.24-5.758-0.397-8.212L313.616,32l13.042-19.563c1.637-2.455,1.789-5.611,0.397-8.212
	S322.951,0,320.001,0h-64c-4.418,0-8,3.582-8,8v68.586L58.466,258.224c-0.015,0.014-0.026,0.031-0.04,0.045
	c-0.253,0.246-0.488,0.51-0.707,0.788c-0.047,0.059-0.09,0.12-0.135,0.18c-0.198,0.266-0.383,0.543-0.547,0.833
	c-0.013,0.023-0.028,0.044-0.041,0.067c-0.172,0.311-0.319,0.637-0.449,0.972c-0.024,0.062-0.046,0.124-0.068,0.187
	c-0.114,0.316-0.212,0.639-0.285,0.973c-0.005,0.021-0.011,0.04-0.016,0.061c-0.072,0.339-0.118,0.688-0.146,1.042
	c-0.007,0.089-0.009,0.177-0.013,0.266c-0.005,0.121-0.018,0.241-0.018,0.363v16c0,8.986,2.98,17.288,8.001,23.974
	c0,0.009-0.001,0.017-0.001,0.026v192h-8c-4.418,0-8,3.582-8,8s3.582,8,8,8h95.978c0.009,0,0.018,0.002,0.028,0.002
	c0.249,0,0.499-0.016,0.749-0.04c0.021-0.002,0.044-0.001,0.065-0.003c0.122-0.013,0.244-0.038,0.366-0.056
	c0.158-0.023,0.316-0.044,0.471-0.076c0.085-0.018,0.17-0.045,0.255-0.066c0.192-0.047,0.383-0.097,0.569-0.157
	c0.022-0.007,0.044-0.011,0.066-0.019c0.068-0.023,0.133-0.054,0.2-0.079c0.172-0.063,0.343-0.128,0.509-0.203
	c0.052-0.023,0.106-0.044,0.158-0.069c12.203-5.672,23.641-13.593,34.214-23.591c0.749,0.232,1.546,0.358,2.371,0.358h128
	c0.826,0,1.622-0.125,2.371-0.358c10.572,9.998,22.011,17.919,34.214,23.591c0.052,0.025,0.105,0.045,0.158,0.069
	c0.166,0.074,0.337,0.14,0.509,0.203c0.067,0.025,0.133,0.056,0.201,0.079c0.021,0.007,0.043,0.011,0.065,0.019
	c0.187,0.061,0.378,0.111,0.57,0.158c0.085,0.021,0.17,0.047,0.255,0.066c0.154,0.032,0.312,0.053,0.47,0.076
	c0.123,0.019,0.245,0.043,0.368,0.056c0.021,0.002,0.042,0.001,0.063,0.003c0.251,0.024,0.501,0.04,0.751,0.04
	c0.009,0,0.018-0.002,0.028-0.002h95.978c4.418,0,8-3.582,8-8S460.419,496,456.001,496z M72.001,280v-8h48v8
	c0,13.233-10.767,24-24,24S72.001,293.233,72.001,280z M203.254,256l44.747-128.648V232c0,4.418,3.582,8,8,8s8-3.582,8-8V127.352
	L308.748,256H203.254z M186.313,256h-43.002l86.004-123.63L186.313,256z M136.001,272h48v8c0,13.233-10.767,24-24,24
	s-24-10.767-24-24V272z M200.001,272h48v8c0,13.233-10.767,24-24,24s-24-10.767-24-24V272z M264.001,272h48v8
	c0,13.233-10.767,24-24,24s-24-10.767-24-24V272z M328.001,272h48v8c0,13.233-10.767,24-24,24s-24-10.767-24-24V272z M392.001,272
	h48v8c0,13.233-10.767,24-24,24s-24-10.767-24-24V272z M388.181,256l-36.588-52.596c-2.523-3.627-7.51-4.521-11.136-1.999
	c-3.627,2.523-4.522,7.509-1.999,11.136L368.69,256h-43.002l-43.002-123.63l33.535,48.207c1.555,2.235,4.044,3.432,6.574,3.432
	c1.577,0,3.169-0.465,4.562-1.433c3.627-2.523,4.522-7.509,1.999-11.136l-20.995-30.181L428.091,256H388.181z M297.345,36.438
	L305.053,48h-41.052V16h41.052l-7.708,11.563C295.553,30.25,295.553,33.75,297.345,36.438z M203.64,141.26L123.821,256h-39.91
	L203.64,141.26z M175.172,479.212c6.971-16.908,12.688-38.056,17.085-63.292c6.125-35.157,7.744-67.651,7.744-79.921
	c0-4.418-3.582-8-8-8s-8,3.582-8,8c0,22.491-6.473,119.592-35.942,160h-12.058V336c0-4.418-3.582-8-8-8s-8,3.582-8,8v160h-40V316.65
	c4.903,2.149,10.313,3.35,16,3.35c13.071,0,24.696-6.303,32-16.028c7.304,9.725,18.929,16.028,32,16.028s24.696-6.303,32-16.028
	c7.304,9.725,18.929,16.028,32,16.028c8.521,0,16.422-2.687,22.918-7.246c-2.217,20.571-8.01,51.488-18.946,81.915
	C218.105,422.124,201.523,456.053,175.172,479.212z M256.001,355.084c3.192,14.253,7.447,29.626,12.972,44.997
	c10.324,28.723,23.461,52.881,38.941,71.919H204.089c15.48-19.038,28.617-43.196,38.941-71.919
	C248.554,384.711,252.809,369.337,256.001,355.084z M284.029,394.669c-10.936-30.427-16.729-61.344-18.946-81.915
	c6.496,4.559,14.397,7.246,22.918,7.246c13.071,0,24.696-6.303,32-16.028c7.304,9.725,18.929,16.028,32,16.028
	s24.696-6.303,32-16.028c7.304,9.725,18.929,16.028,32,16.028c5.687,0,11.097-1.201,16-3.35V496h-40V336c0-4.418-3.582-8-8-8
	s-8,3.582-8,8v160h-12.058c-29.469-40.408-35.942-137.509-35.942-160c0-4.418-3.582-8-8-8s-8,3.582-8,8
	c0,12.27,1.619,44.764,7.744,79.921c4.397,25.235,10.114,46.384,17.085,63.292C310.479,456.053,293.897,422.124,284.029,394.669z"/>
<g>
</g>
<g>
</g>
<g>
</g>
<g>
</g>
<g>
</g>
<g>
</g>
<g>
</g>
<g>
</g>
<g>
</g>
<g>
</g>
<g>
</g>
<g>
</g>
<g>
</g>
<g>
</g>
<g>
</g>
</svg>
