<svg xmlns="http://www.w3.org/2000/svg"
     width="59.9647mm" height="59.9647mm" fill="none" 
     viewBox="0 0 170 170">
  <path
        fill="#DD2050" fill-rule="evenodd" clip-rule="evenodd"
        d="M 117.00,50.00
           C 117.00,50.00 102.00,44.68 102.00,44.68
             92.19,42.46 80.84,44.47 72.00,49.00
             72.00,49.00 69.10,42.00 69.10,42.00
             68.81,38.78 70.60,36.58 69.10,32.00
             68.01,29.79 66.71,27.94 64.89,26.42
             53.17,16.56 38.13,32.68 47.43,43.89
             49.38,46.25 51.99,47.72 55.00,48.23
             58.16,48.76 60.10,48.03 63.00,47.00
             63.00,47.00 66.00,52.00 66.00,52.00
             45.93,60.96 24.06,86.51 14.25,106.00
             10.14,114.17 6.40,122.71 6.04,132.00
             5.38,148.80 16.23,153.34 31.00,152.99
             53.14,152.46 74.52,143.49 94.00,133.75
             97.46,132.02 108.28,127.17 110.26,124.61
             112.22,122.07 112.07,118.09 108.77,116.78
             104.73,115.17 93.05,122.23 89.00,124.25
             77.40,130.03 56.85,138.69 44.00,138.99
             41.14,139.05 37.73,139.06 35.00,138.20
             18.05,132.89 25.80,113.61 31.87,103.00
             43.93,81.91 68.44,59.70 94.00,60.00
             106.03,60.14 112.96,65.61 120.96,74.00
             134.77,88.48 142.75,113.91 147.99,133.00
             149.15,137.23 151.23,148.78 153.28,151.77
             155.19,154.58 159.62,156.08 162.26,153.40
             165.96,149.65 162.37,136.82 161.40,132.00
             157.40,112.15 149.16,89.98 138.14,73.00
             138.14,73.00 126.98,58.00 126.98,58.00
             125.71,54.85 127.87,50.79 131.10,49.82
             132.28,49.55 133.79,49.79 135.00,49.82
             138.09,49.70 141.25,49.02 144.00,47.56
             146.58,46.19 148.44,44.45 150.01,41.98
             164.22,19.72 127.73,2.99 119.43,26.00
             116.50,33.49 119.52,37.41 119.43,41.00
             119.67,43.49 117.78,47.29 117.00,50.00 Z
           M 81.04,72.74
           C 70.85,78.67 78.39,90.62 86.96,87.26
             94.80,84.18 93.35,70.03 81.04,72.74 Z
           M 105.15,99.07
           C 103.12,100.82 101.80,101.99 102.66,105.00
             103.56,108.19 109.59,113.31 112.09,117.00
             116.17,123.04 116.72,128.65 118.56,131.89
             119.95,134.36 122.80,136.63 125.69,134.93
             129.08,132.94 127.90,126.13 127.08,123.00
             124.96,114.92 114.89,96.69 105.15,99.07 Z" />
</svg>