<?xml version="1.0" standalone="no"?>
<!DOCTYPE svg PUBLIC "-//W3C//DTD SVG 20010904//EN"
 "http://www.w3.org/TR/2001/REC-SVG-20010904/DTD/svg10.dtd">
<svg version="1.0" xmlns="http://www.w3.org/2000/svg"
 width="700.000000pt" height="700.000000pt" viewBox="0 0 700.000000 700.000000"
 preserveAspectRatio="xMidYMid meet">
<metadata>
Created by potrace 1.14, written by Peter Selinger 2001-2017
</metadata>
<g transform="translate(0.000000,700.000000) scale(0.100000,-0.100000)"
fill="#000000" stroke="none">
<path d="M2080 6989 c-150 -19 -242 -35 -330 -59 -25 -7 -52 -13 -60 -15 -36
-7 -202 -67 -280 -100 -510 -219 -916 -605 -1165 -1110 -99 -199 -180 -447
-211 -642 -3 -19 -7 -44 -9 -54 -30 -154 -24 -576 10 -749 80 -408 224 -731
464 -1040 79 -103 280 -306 377 -382 317 -250 637 -394 1053 -473 92 -17 217
-23 276 -12 121 21 185 66 388 271 98 100 301 305 452 456 150 151 281 291
291 310 25 47 26 172 1 217 -22 41 -1 19 -672 698 -313 317 -581 595 -595 618
-20 34 -25 55 -25 112 1 102 43 173 135 221 34 18 92 19 1544 20 1375 1 1662
5 1736 19 14 2 36 7 50 10 14 2 39 7 55 10 58 10 201 53 280 85 392 157 711
455 901 845 50 103 115 283 127 350 3 17 13 68 22 115 8 47 18 131 21 188 l6
102 -2388 -1 c-1314 -1 -2418 -5 -2454 -10z"/>
<path d="M4790 4649 c-25 -5 -79 -25 -120 -45 -67 -34 -96 -59 -278 -243 -112
-113 -317 -321 -456 -461 -139 -140 -262 -271 -272 -290 -25 -48 -26 -171 -1
-218 21 -38 -19 3 642 -667 625 -633 613 -620 631 -663 36 -88 18 -195 -45
-261 -78 -81 72 -74 -1651 -76 -844 -1 -1571 -5 -1615 -9 -318 -29 -645 -163
-905 -371 -69 -55 -208 -193 -261 -260 -169 -212 -304 -507 -348 -760 -6 -33
-13 -73 -16 -90 -3 -16 -8 -76 -11 -133 l-6 -103 2429 4 c1817 3 2443 7 2488
15 33 7 76 15 95 17 62 9 242 55 334 86 259 87 527 238 739 417 360 303 613
693 746 1153 38 131 59 242 78 409 14 119 5 541 -12 570 -1 3 -6 28 -10 55 -8
67 -37 191 -69 296 -124 419 -405 844 -736 1112 -41 34 -77 64 -80 67 -12 13
-161 111 -234 154 -131 77 -400 196 -477 211 -9 2 -47 12 -85 24 -60 17 -148
35 -274 56 -62 11 -174 12 -220 4z"/>
</g>
</svg>
